<svg id="svg" version="1.1" xmlns="http://www.w3.org/2000/svg" xmlns:xlink="http://www.w3.org/1999/xlink" width="400" height="92.30769230769232" viewBox="0, 0, 400,92.30769230769232"><g id="svgg"><path id="path0" d="M47.215 3.667 C 47.136 3.967,46.987 4.000,45.689 4.002 C 44.034 4.005,43.500 4.111,43.500 4.436 C 43.500 4.605,43.252 4.667,42.578 4.667 C 41.912 4.667,41.630 4.736,41.560 4.917 C 41.494 5.089,41.223 5.167,40.691 5.169 C 39.679 5.172,39.167 5.318,39.167 5.603 C 39.167 5.758,38.962 5.833,38.540 5.833 C 38.094 5.833,37.854 5.929,37.705 6.167 C 37.547 6.420,37.317 6.500,36.749 6.500 C 36.194 6.500,36.000 6.565,36.000 6.750 C 36.000 6.914,35.836 7.000,35.526 7.000 C 35.263 7.000,34.917 7.149,34.750 7.333 C 34.546 7.559,34.237 7.667,33.792 7.667 C 33.276 7.667,33.117 7.738,33.048 8.000 C 32.987 8.236,32.821 8.333,32.481 8.333 C 32.216 8.333,31.850 8.483,31.667 8.667 C 31.483 8.850,31.146 9.000,30.917 9.000 C 30.676 9.000,30.518 9.086,30.542 9.204 C 30.565 9.317,30.415 9.434,30.208 9.466 C 29.969 9.503,29.833 9.639,29.833 9.845 C 29.833 10.102,29.715 10.167,29.250 10.167 C 28.778 10.167,28.667 10.230,28.667 10.500 C 28.667 10.770,28.556 10.833,28.083 10.833 C 27.676 10.833,27.500 10.909,27.500 11.083 C 27.500 11.222,27.352 11.333,27.167 11.333 C 26.944 11.333,26.833 11.444,26.833 11.667 C 26.833 11.935,26.722 12.000,26.261 12.000 C 25.836 12.000,25.662 12.085,25.583 12.333 C 25.525 12.517,25.370 12.667,25.239 12.667 C 25.107 12.667,25.000 12.779,25.000 12.917 C 25.000 13.056,24.852 13.167,24.667 13.167 C 24.444 13.167,24.333 13.278,24.333 13.500 C 24.333 13.762,24.222 13.833,23.818 13.833 C 23.442 13.833,23.278 13.924,23.215 14.167 C 23.167 14.351,22.988 14.500,22.814 14.500 C 22.641 14.500,22.500 14.604,22.500 14.731 C 22.500 14.857,22.350 15.000,22.167 15.048 C 21.983 15.096,21.833 15.246,21.833 15.382 C 21.833 15.517,21.683 15.667,21.500 15.715 C 21.317 15.763,21.167 15.922,21.167 16.068 C 21.167 16.214,21.054 16.333,20.917 16.333 C 20.779 16.333,20.667 16.437,20.667 16.564 C 20.667 16.691,20.517 16.834,20.333 16.882 C 20.150 16.930,20.000 17.088,20.000 17.234 C 20.000 17.389,19.861 17.500,19.667 17.500 C 19.444 17.500,19.333 17.611,19.333 17.833 C 19.333 18.019,19.222 18.167,19.083 18.167 C 18.946 18.167,18.833 18.279,18.833 18.417 C 18.833 18.554,18.714 18.667,18.568 18.667 C 18.422 18.667,18.263 18.817,18.215 19.000 C 18.167 19.184,17.988 19.333,17.814 19.333 C 17.611 19.333,17.500 19.451,17.500 19.667 C 17.500 19.852,17.389 20.000,17.250 20.000 C 17.111 20.000,17.000 20.148,17.000 20.333 C 17.000 20.556,16.889 20.667,16.667 20.667 C 16.483 20.667,16.333 20.763,16.333 20.880 C 16.333 20.997,16.183 21.201,16.000 21.333 C 15.804 21.474,15.667 21.765,15.667 22.037 C 15.667 22.292,15.595 22.500,15.508 22.500 C 15.350 22.500,14.500 23.279,14.500 23.424 C 14.500 23.466,14.350 23.650,14.167 23.833 C 13.983 24.017,13.833 24.317,13.833 24.500 C 13.833 24.683,13.740 24.837,13.625 24.840 C 13.349 24.850,12.667 25.932,12.667 26.360 C 12.667 26.558,12.528 26.734,12.333 26.785 C 12.086 26.850,12.000 27.012,12.000 27.417 C 12.000 27.821,11.914 27.984,11.667 28.048 C 11.424 28.112,11.333 28.276,11.333 28.651 C 11.333 28.998,11.252 29.167,11.083 29.167 C 10.903 29.167,10.833 29.352,10.833 29.833 C 10.833 30.389,10.778 30.500,10.500 30.500 C 10.240 30.500,10.167 30.611,10.167 31.007 C 10.167 31.286,10.017 31.675,9.833 31.872 C 9.624 32.096,9.500 32.460,9.500 32.847 C 9.500 33.242,9.410 33.499,9.250 33.560 C 9.104 33.616,9.000 33.866,9.000 34.161 C 9.000 34.444,8.853 34.813,8.667 35.000 C 8.415 35.252,8.333 35.556,8.333 36.242 C 8.333 36.919,8.262 37.190,8.054 37.307 C 7.853 37.419,7.752 37.761,7.697 38.522 C 7.646 39.234,7.533 39.644,7.352 39.777 C 6.936 40.081,6.943 55.709,7.359 56.034 C 7.547 56.182,7.656 56.586,7.704 57.310 C 7.755 58.078,7.851 58.413,8.054 58.527 C 8.262 58.643,8.333 58.915,8.333 59.592 C 8.333 60.278,8.415 60.582,8.667 60.833 C 8.873 61.040,9.000 61.389,9.000 61.750 C 9.000 62.157,9.075 62.333,9.250 62.333 C 9.431 62.333,9.500 62.519,9.500 63.002 C 9.500 63.464,9.603 63.758,9.833 63.955 C 10.018 64.113,10.167 64.447,10.167 64.702 C 10.167 64.983,10.297 65.245,10.500 65.372 C 10.723 65.511,10.833 65.761,10.833 66.123 C 10.833 66.495,10.912 66.667,11.083 66.667 C 11.252 66.667,11.333 66.835,11.333 67.182 C 11.333 67.558,11.424 67.722,11.667 67.785 C 11.915 67.850,12.000 68.012,12.000 68.425 C 12.000 68.831,12.088 69.006,12.333 69.083 C 12.517 69.142,12.667 69.329,12.667 69.500 C 12.667 69.907,13.358 70.984,13.625 70.993 C 13.740 70.997,13.833 71.150,13.833 71.333 C 13.833 71.517,13.983 71.817,14.167 72.000 C 14.350 72.183,14.500 72.437,14.500 72.564 C 14.500 72.691,14.650 72.834,14.833 72.882 C 15.017 72.930,15.167 73.088,15.167 73.234 C 15.167 73.380,15.279 73.500,15.417 73.500 C 15.569 73.500,15.667 73.655,15.667 73.896 C 15.667 74.310,16.034 74.744,16.224 74.554 C 16.284 74.494,16.333 74.569,16.333 74.721 C 16.333 74.873,16.483 75.091,16.667 75.205 C 16.850 75.320,17.000 75.508,17.000 75.623 C 17.000 75.739,17.112 75.833,17.250 75.833 C 17.389 75.833,17.500 75.981,17.500 76.167 C 17.500 76.389,17.611 76.500,17.833 76.500 C 18.056 76.500,18.167 76.611,18.167 76.833 C 18.167 77.056,18.278 77.167,18.500 77.167 C 18.685 77.167,18.833 77.278,18.833 77.417 C 18.833 77.554,18.946 77.667,19.083 77.667 C 19.222 77.667,19.333 77.815,19.333 78.000 C 19.333 78.222,19.444 78.333,19.667 78.333 C 19.889 78.333,20.000 78.444,20.000 78.667 C 20.000 78.889,20.111 79.000,20.333 79.000 C 20.519 79.000,20.667 79.111,20.667 79.250 C 20.667 79.387,20.779 79.500,20.917 79.500 C 21.054 79.500,21.167 79.620,21.167 79.766 C 21.167 79.912,21.317 80.070,21.500 80.118 C 21.683 80.166,21.833 80.316,21.833 80.452 C 21.833 80.587,21.983 80.737,22.167 80.785 C 22.350 80.833,22.500 80.976,22.500 81.103 C 22.500 81.230,22.650 81.333,22.833 81.333 C 23.056 81.333,23.167 81.444,23.167 81.667 C 23.167 81.850,23.223 81.991,23.292 81.980 C 23.902 81.884,24.333 82.030,24.333 82.333 C 24.333 82.556,24.444 82.667,24.667 82.667 C 24.861 82.667,25.000 82.778,25.000 82.932 C 25.000 83.078,25.150 83.237,25.333 83.285 C 25.517 83.333,25.667 83.476,25.667 83.603 C 25.667 83.755,25.864 83.833,26.250 83.833 C 26.722 83.833,26.833 83.897,26.833 84.167 C 26.833 84.352,26.944 84.500,27.083 84.500 C 27.221 84.500,27.483 84.650,27.667 84.833 C 27.850 85.017,28.150 85.167,28.333 85.167 C 28.519 85.167,28.667 85.278,28.667 85.417 C 28.667 85.591,28.843 85.667,29.250 85.667 C 29.715 85.667,29.833 85.732,29.833 85.988 C 29.833 86.194,29.969 86.331,30.208 86.367 C 30.415 86.399,30.567 86.509,30.547 86.612 C 30.528 86.714,30.775 86.848,31.098 86.908 C 31.420 86.969,31.726 87.127,31.777 87.259 C 31.831 87.401,32.093 87.500,32.415 87.500 C 32.821 87.500,32.983 87.586,33.048 87.833 C 33.121 88.112,33.276 88.167,33.984 88.167 C 34.722 88.167,34.833 88.210,34.833 88.500 C 34.833 88.770,34.944 88.833,35.417 88.833 C 35.824 88.833,36.000 88.909,36.000 89.083 C 36.000 89.275,36.213 89.333,36.917 89.333 C 37.722 89.333,37.833 89.374,37.833 89.667 C 37.833 89.944,37.944 90.000,38.500 90.000 C 38.957 90.000,39.167 90.073,39.167 90.231 C 39.167 90.516,39.679 90.661,40.691 90.664 C 41.223 90.666,41.494 90.745,41.560 90.917 C 41.628 91.093,41.903 91.167,42.495 91.167 C 43.111 91.167,43.422 91.255,43.667 91.500 C 43.953 91.787,44.222 91.833,45.583 91.833 C 46.528 91.833,47.167 91.901,47.167 92.000 C 47.167 92.109,50.222 92.167,56.000 92.167 C 61.778 92.167,64.833 92.109,64.833 92.000 C 64.833 91.901,65.459 91.833,66.377 91.833 C 67.739 91.833,67.944 91.794,68.128 91.500 C 68.299 91.227,68.517 91.167,69.340 91.167 C 70.079 91.167,70.369 91.101,70.440 90.917 C 70.506 90.745,70.777 90.666,71.309 90.664 C 72.321 90.661,72.833 90.516,72.833 90.231 C 72.833 90.073,73.043 90.000,73.500 90.000 C 74.056 90.000,74.167 89.944,74.167 89.667 C 74.167 89.378,74.278 89.333,75.005 89.333 C 75.597 89.333,75.872 89.260,75.940 89.083 C 75.999 88.929,76.252 88.833,76.601 88.833 C 77.056 88.833,77.167 88.768,77.167 88.500 C 77.167 88.222,77.278 88.167,77.833 88.167 C 78.278 88.167,78.611 88.056,78.833 87.833 C 79.017 87.650,79.271 87.500,79.399 87.500 C 79.527 87.500,79.674 87.387,79.727 87.250 C 79.784 87.102,80.034 87.000,80.344 87.000 C 80.724 87.000,80.888 86.910,80.952 86.667 C 81.017 86.416,81.179 86.333,81.603 86.333 C 82.056 86.333,82.167 86.268,82.167 86.000 C 82.167 85.730,82.278 85.667,82.750 85.667 C 83.157 85.667,83.333 85.591,83.333 85.417 C 83.333 85.278,83.481 85.167,83.667 85.167 C 83.850 85.167,84.150 85.017,84.333 84.833 C 84.517 84.650,84.779 84.500,84.917 84.500 C 85.056 84.500,85.167 84.352,85.167 84.167 C 85.167 83.977,85.278 83.833,85.425 83.833 C 85.815 83.833,86.997 83.113,86.999 82.875 C 86.999 82.760,87.150 82.667,87.333 82.667 C 87.556 82.667,87.667 82.556,87.667 82.333 C 87.667 82.111,87.778 82.000,88.000 82.000 C 88.222 82.000,88.333 81.889,88.333 81.667 C 88.333 81.397,88.444 81.333,88.917 81.333 C 89.302 81.333,89.500 81.255,89.500 81.103 C 89.500 80.976,89.650 80.833,89.833 80.785 C 90.017 80.737,90.167 80.587,90.167 80.452 C 90.167 80.316,90.317 80.166,90.500 80.118 C 90.683 80.070,90.833 79.912,90.833 79.766 C 90.833 79.620,90.946 79.500,91.083 79.500 C 91.221 79.500,91.333 79.387,91.333 79.250 C 91.333 79.111,91.481 79.000,91.667 79.000 C 91.882 79.000,92.000 78.889,92.000 78.686 C 92.000 78.512,92.149 78.333,92.333 78.285 C 92.517 78.237,92.667 78.078,92.667 77.932 C 92.667 77.786,92.779 77.667,92.917 77.667 C 93.054 77.667,93.167 77.563,93.167 77.436 C 93.167 77.309,93.317 77.166,93.500 77.118 C 93.683 77.070,93.833 76.920,93.833 76.785 C 93.833 76.650,93.983 76.500,94.167 76.452 C 94.350 76.404,94.500 76.245,94.500 76.099 C 94.500 75.953,94.612 75.833,94.750 75.833 C 94.888 75.833,95.000 75.721,95.000 75.583 C 95.000 75.446,95.150 75.183,95.333 75.000 C 95.517 74.817,95.667 74.517,95.667 74.333 C 95.667 74.111,95.778 74.000,96.000 74.000 C 96.183 74.000,96.333 73.906,96.333 73.790 C 96.333 73.675,96.483 73.487,96.667 73.372 C 96.850 73.258,97.000 73.060,97.000 72.933 C 97.000 72.806,97.112 72.659,97.250 72.606 C 97.396 72.550,97.500 72.301,97.500 72.005 C 97.500 71.611,97.573 71.500,97.833 71.500 C 98.022 71.500,98.167 71.389,98.167 71.245 C 98.167 71.104,98.277 70.947,98.412 70.895 C 98.547 70.844,98.705 70.546,98.764 70.234 C 98.824 69.912,98.971 69.667,99.102 69.667 C 99.255 69.667,99.333 69.470,99.333 69.083 C 99.333 68.611,99.397 68.500,99.667 68.500 C 99.891 68.500,100.000 68.389,100.000 68.161 C 100.000 67.975,100.112 67.780,100.250 67.727 C 100.388 67.674,100.500 67.507,100.500 67.355 C 100.500 67.203,100.650 66.799,100.833 66.456 C 101.017 66.114,101.167 65.759,101.167 65.667 C 101.167 65.575,101.317 65.350,101.500 65.167 C 101.705 64.962,101.833 64.611,101.833 64.256 C 101.833 63.849,101.932 63.626,102.167 63.500 C 102.422 63.364,102.500 63.151,102.500 62.595 C 102.500 62.103,102.581 61.838,102.750 61.773 C 102.902 61.715,103.000 61.462,103.000 61.129 C 103.000 60.761,103.110 60.512,103.333 60.372 C 103.611 60.199,103.667 59.983,103.667 59.082 C 103.667 58.222,103.735 57.932,104.000 57.667 C 104.266 57.400,104.333 57.111,104.333 56.227 C 104.333 55.365,104.398 55.073,104.625 54.907 C 105.057 54.591,105.076 41.257,104.645 40.941 C 104.447 40.796,104.356 40.398,104.309 39.460 C 104.261 38.504,104.172 38.122,103.962 37.963 C 103.752 37.805,103.672 37.457,103.646 36.602 C 103.618 35.645,103.562 35.441,103.306 35.375 C 103.078 35.315,103.000 35.136,103.000 34.668 C 103.000 34.314,102.891 33.950,102.750 33.833 C 102.612 33.719,102.500 33.366,102.500 33.047 C 102.500 32.609,102.419 32.448,102.167 32.382 C 101.897 32.311,101.833 32.154,101.833 31.565 C 101.833 31.017,101.751 30.785,101.500 30.628 C 101.317 30.513,101.167 30.256,101.167 30.055 C 101.167 29.855,101.060 29.583,100.929 29.453 C 100.798 29.322,100.640 28.942,100.577 28.609 C 100.515 28.276,100.397 28.044,100.315 28.095 C 100.233 28.145,100.099 28.010,100.017 27.795 C 99.935 27.579,99.748 27.303,99.601 27.181 C 99.454 27.059,99.333 26.781,99.333 26.563 C 99.333 26.336,99.234 26.167,99.102 26.167 C 98.971 26.167,98.824 25.921,98.764 25.599 C 98.705 25.287,98.547 24.990,98.412 24.938 C 98.277 24.886,98.167 24.729,98.167 24.589 C 98.167 24.444,98.022 24.333,97.833 24.333 C 97.575 24.333,97.500 24.222,97.500 23.842 C 97.500 23.346,96.884 22.500,96.523 22.500 C 96.418 22.500,96.333 22.391,96.333 22.258 C 96.333 22.124,96.142 21.824,95.908 21.590 C 95.674 21.355,95.531 21.084,95.591 20.987 C 95.651 20.890,95.543 20.770,95.350 20.719 C 95.151 20.667,95.000 20.493,95.000 20.314 C 95.000 20.141,94.888 20.000,94.750 20.000 C 94.612 20.000,94.500 19.880,94.500 19.734 C 94.500 19.588,94.350 19.430,94.167 19.382 C 93.983 19.334,93.833 19.196,93.833 19.075 C 93.833 18.954,93.683 18.808,93.500 18.750 C 93.317 18.692,93.167 18.537,93.167 18.405 C 93.167 18.274,93.054 18.167,92.917 18.167 C 92.779 18.167,92.667 18.047,92.667 17.901 C 92.667 17.755,92.517 17.596,92.333 17.548 C 92.150 17.500,92.000 17.350,92.000 17.215 C 92.000 17.080,91.850 16.930,91.667 16.882 C 91.483 16.834,91.333 16.691,91.333 16.564 C 91.333 16.437,91.226 16.333,91.095 16.333 C 90.963 16.333,90.808 16.183,90.750 16.000 C 90.692 15.817,90.546 15.667,90.425 15.667 C 90.304 15.667,90.166 15.517,90.118 15.333 C 90.070 15.150,89.912 15.000,89.766 15.000 C 89.620 15.000,89.500 14.887,89.500 14.750 C 89.500 14.575,89.324 14.500,88.917 14.500 C 88.444 14.500,88.333 14.437,88.333 14.167 C 88.333 13.944,88.222 13.833,88.000 13.833 C 87.778 13.833,87.667 13.722,87.667 13.500 C 87.667 13.278,87.556 13.167,87.333 13.167 C 87.148 13.167,87.000 13.056,87.000 12.917 C 87.000 12.778,86.852 12.667,86.667 12.667 C 86.483 12.667,86.333 12.562,86.333 12.434 C 86.333 12.180,85.983 12.000,85.486 12.000 C 85.278 12.000,85.167 11.884,85.167 11.667 C 85.167 11.451,85.056 11.333,84.851 11.333 C 84.678 11.333,84.492 11.221,84.440 11.083 C 84.385 10.940,84.136 10.833,83.858 10.833 C 83.512 10.833,83.347 10.737,83.285 10.500 C 83.222 10.257,83.058 10.167,82.682 10.167 C 82.278 10.167,82.167 10.095,82.167 9.833 C 82.167 9.589,82.056 9.500,81.750 9.500 C 81.521 9.500,81.333 9.431,81.333 9.346 C 81.333 9.262,81.077 9.108,80.765 9.005 C 80.452 8.902,80.154 8.708,80.103 8.575 C 80.050 8.437,79.793 8.333,79.505 8.333 C 79.184 8.333,79.000 8.249,79.000 8.101 C 79.000 7.803,78.635 7.667,77.839 7.667 C 77.346 7.667,77.186 7.593,77.118 7.333 C 77.055 7.091,76.891 7.000,76.516 7.000 C 76.168 7.000,76.000 6.918,76.000 6.750 C 76.000 6.558,75.787 6.500,75.083 6.500 C 74.278 6.500,74.167 6.460,74.167 6.167 C 74.167 5.889,74.056 5.833,73.500 5.833 C 73.045 5.833,72.833 5.760,72.833 5.604 C 72.833 5.351,72.130 5.167,71.164 5.167 C 70.759 5.167,70.502 5.078,70.440 4.917 C 70.372 4.740,70.097 4.667,69.505 4.667 C 68.889 4.667,68.578 4.578,68.333 4.333 C 68.047 4.047,67.778 4.000,66.417 4.000 C 65.174 4.000,64.833 3.950,64.833 3.768 C 64.833 3.353,64.416 3.333,55.804 3.333 C 47.442 3.333,47.301 3.339,47.215 3.667 M29.990 18.178 C 31.965 18.929,33.723 20.618,34.034 22.063 C 34.115 22.441,34.214 32.786,34.254 45.052 C 34.293 57.317,34.370 67.424,34.423 67.510 C 34.483 67.607,44.137 67.669,59.635 67.672 C 86.571 67.678,85.703 67.653,86.698 68.450 C 86.818 68.547,87.068 68.672,87.254 68.729 C 87.439 68.785,87.942 69.151,88.372 69.541 C 91.615 72.482,90.348 77.411,85.917 79.099 C 85.109 79.407,84.193 79.417,55.917 79.417 L 26.750 79.417 25.635 79.050 C 23.208 78.253,21.977 77.032,21.266 74.719 C 20.868 73.426,20.861 25.245,21.257 23.226 C 22.088 19.002,26.082 16.693,29.990 18.178 M86.297 18.168 C 90.601 19.804,91.844 24.297,88.838 27.352 C 86.757 29.466,87.210 29.409,72.583 29.413 C 65.800 29.415,60.156 29.477,60.042 29.552 C 59.821 29.694,59.720 44.344,59.936 44.906 C 60.028 45.147,61.217 45.172,72.394 45.164 C 86.809 45.154,86.802 45.154,88.687 46.813 C 91.882 49.625,90.985 54.077,86.777 56.296 L 85.917 56.750 68.833 56.750 L 51.750 56.750 50.622 56.273 C 49.104 55.630,47.974 54.585,47.294 53.195 L 46.750 52.083 46.705 37.356 L 46.660 22.629 47.059 21.756 C 47.724 20.304,49.272 18.971,51.250 18.146 C 52.387 17.672,85.045 17.692,86.297 18.168 " stroke="none" fill="#ec1d24" fill-rule="evenodd"></path><path id="path1" d="M25.795 18.522 C 24.187 18.831,22.665 20.284,21.978 22.167 L 21.583 23.250 21.583 48.917 L 21.583 74.583 22.021 75.501 C 22.891 77.327,24.232 78.276,26.583 78.733 C 28.755 79.155,83.774 79.184,85.325 78.765 C 90.633 77.328,91.292 71.131,86.392 68.728 L 85.417 68.250 59.926 68.205 C 36.718 68.164,34.409 68.136,34.138 67.891 C 33.855 67.635,33.838 66.477,33.795 44.936 L 33.750 22.250 33.363 21.551 C 32.963 20.829,31.290 19.167,30.962 19.167 C 30.860 19.167,30.658 19.063,30.513 18.935 C 29.912 18.407,27.497 18.195,25.795 18.522 M51.685 18.514 C 51.283 18.593,50.833 18.763,50.685 18.892 C 50.537 19.021,50.247 19.179,50.040 19.242 C 49.833 19.305,49.210 19.795,48.657 20.330 C 46.903 22.025,46.985 21.154,47.046 37.434 C 47.098 51.347,47.127 52.053,47.687 53.000 C 47.768 53.137,47.900 53.400,47.981 53.583 C 48.366 54.458,49.773 55.474,51.320 55.995 C 52.678 56.453,85.258 56.452,86.351 55.995 C 90.167 54.396,91.325 50.050,88.655 47.348 C 86.923 45.595,87.160 45.620,72.667 45.655 C 61.815 45.680,60.037 45.651,59.750 45.439 C 59.373 45.162,59.049 34.063,59.326 30.944 C 59.527 28.687,57.960 28.930,72.964 28.833 C 87.234 28.742,86.102 28.824,87.750 27.753 C 91.487 25.323,90.281 19.658,85.786 18.526 C 84.865 18.295,52.861 18.283,51.685 18.514 " stroke="none" fill="#fbfafa" fill-rule="evenodd"></path><path id="path2" d="M25.333 18.138 C 23.104 18.966,21.766 20.636,21.257 23.226 C 20.861 25.245,20.868 73.426,21.266 74.719 C 21.977 77.032,23.208 78.253,25.635 79.050 L 26.750 79.417 55.917 79.417 C 84.193 79.417,85.109 79.407,85.917 79.099 C 90.348 77.411,91.615 72.482,88.372 69.541 C 87.942 69.151,87.439 68.785,87.254 68.729 C 87.068 68.672,86.818 68.547,86.698 68.450 C 85.703 67.653,86.571 67.678,59.635 67.672 C 44.137 67.669,34.483 67.607,34.423 67.510 C 34.370 67.424,34.293 57.317,34.254 45.052 C 34.214 32.786,34.115 22.441,34.034 22.063 C 33.397 19.101,28.584 16.930,25.333 18.138 M51.250 18.146 C 49.272 18.971,47.724 20.304,47.059 21.756 L 46.660 22.629 46.705 37.356 L 46.750 52.083 47.294 53.195 C 47.974 54.585,49.104 55.630,50.622 56.273 L 51.750 56.750 68.833 56.750 L 85.917 56.750 86.777 56.296 C 90.985 54.077,91.882 49.625,88.687 46.813 C 86.802 45.154,86.809 45.154,72.394 45.164 C 61.217 45.172,60.028 45.147,59.936 44.906 C 59.720 44.344,59.821 29.694,60.042 29.552 C 60.156 29.477,65.800 29.415,72.583 29.413 C 87.210 29.409,86.757 29.466,88.838 27.352 C 91.844 24.297,90.601 19.804,86.297 18.168 C 85.045 17.692,52.387 17.672,51.250 18.146 M29.367 18.519 C 29.853 18.621,30.368 18.808,30.513 18.935 C 30.658 19.063,30.860 19.167,30.962 19.167 C 31.290 19.167,32.963 20.829,33.363 21.551 L 33.750 22.250 33.795 44.936 C 33.838 66.477,33.855 67.635,34.138 67.891 C 34.409 68.136,36.718 68.164,59.926 68.205 L 85.417 68.250 86.392 68.728 C 91.292 71.131,90.633 77.328,85.325 78.765 C 83.774 79.184,28.755 79.155,26.583 78.733 C 24.232 78.276,22.891 77.327,22.021 75.501 L 21.583 74.583 21.583 48.917 L 21.583 23.250 21.978 22.167 C 23.083 19.138,25.838 17.778,29.367 18.519 M85.786 18.526 C 90.281 19.658,91.487 25.323,87.750 27.753 C 86.102 28.824,87.234 28.742,72.964 28.833 C 57.960 28.930,59.527 28.687,59.326 30.944 C 59.049 34.063,59.373 45.162,59.750 45.439 C 60.037 45.651,61.815 45.680,72.667 45.655 C 85.184 45.625,85.256 45.626,86.308 45.986 C 91.362 47.714,91.388 53.885,86.351 55.995 C 85.258 56.452,52.678 56.453,51.320 55.995 C 49.773 55.474,48.366 54.458,47.981 53.583 C 47.900 53.400,47.768 53.137,47.687 53.000 C 47.127 52.053,47.098 51.347,47.046 37.434 C 46.985 21.154,46.903 22.025,48.657 20.330 C 49.210 19.795,49.833 19.305,50.040 19.242 C 50.247 19.179,50.537 19.021,50.685 18.892 C 50.833 18.763,51.283 18.593,51.685 18.514 C 52.861 18.283,84.865 18.295,85.786 18.526 " stroke="none" fill="#f4878c" fill-rule="evenodd"></path><path id="path3" d="M116.370 14.759 L 116.000 15.019 116.000 30.061 C 116.000 42.789,116.036 45.153,116.237 45.426 C 116.610 45.937,135.727 45.932,136.101 45.421 C 136.292 45.160,136.332 44.540,136.296 42.421 L 136.250 39.750 130.708 39.706 L 125.167 39.662 125.167 27.443 L 125.167 15.225 124.781 14.862 C 124.269 14.382,117.036 14.293,116.370 14.759 M141.679 19.772 C 141.219 20.357,141.154 24.130,141.595 24.571 C 141.823 24.800,142.609 24.833,147.679 24.833 L 153.500 24.833 153.500 26.417 L 153.500 28.000 148.520 28.000 C 144.498 28.000,143.504 28.044,143.351 28.229 C 143.246 28.355,142.862 28.506,142.497 28.565 C 142.068 28.633,141.833 28.758,141.833 28.919 C 141.833 29.091,141.655 29.167,141.250 29.167 C 140.778 29.167,140.667 29.230,140.667 29.500 C 140.667 29.722,140.556 29.833,140.333 29.833 C 140.111 29.833,140.000 29.944,140.000 30.167 C 140.000 30.389,139.889 30.500,139.667 30.500 C 139.478 30.500,139.333 30.611,139.333 30.755 C 139.333 30.896,139.221 31.054,139.083 31.106 C 138.639 31.277,138.717 41.716,139.167 42.288 C 139.350 42.521,139.501 42.795,139.503 42.897 C 139.507 43.194,140.234 43.802,140.734 43.928 C 140.987 43.991,141.233 44.146,141.281 44.271 C 141.331 44.401,141.606 44.500,141.915 44.500 C 142.321 44.500,142.483 44.586,142.548 44.833 C 142.625 45.127,142.776 45.167,143.818 45.167 C 144.728 45.167,145.000 45.221,145.000 45.403 C 145.000 45.911,162.030 46.038,162.534 45.533 C 162.705 45.361,162.760 43.147,162.800 34.783 C 162.853 23.818,162.811 22.500,162.405 22.500 C 162.274 22.500,162.167 22.350,162.167 22.167 C 162.167 21.944,162.056 21.833,161.833 21.833 C 161.611 21.833,161.500 21.722,161.500 21.500 C 161.500 21.312,161.389 21.167,161.245 21.167 C 161.104 21.167,160.946 21.054,160.894 20.917 C 160.834 20.762,160.581 20.667,160.232 20.667 C 159.778 20.667,159.667 20.601,159.667 20.333 C 159.667 20.068,159.556 20.000,159.123 20.000 C 158.761 20.000,158.511 19.889,158.372 19.667 C 158.168 19.341,157.983 19.333,150.094 19.333 L 142.024 19.333 141.679 19.772 M168.130 19.447 C 167.665 19.569,167.651 20.029,167.701 32.787 L 167.750 44.991 168.129 45.370 C 168.504 45.745,168.566 45.750,172.574 45.750 L 176.639 45.750 177.070 45.346 L 177.500 44.942 177.500 34.888 L 177.500 24.833 180.244 24.833 L 182.988 24.833 183.036 35.153 C 183.062 40.829,183.146 45.535,183.222 45.611 C 183.298 45.688,185.186 45.750,187.417 45.750 L 191.473 45.750 191.903 45.346 L 192.333 44.942 192.333 33.985 C 192.333 22.920,192.317 22.500,191.899 22.500 C 191.771 22.500,191.667 22.380,191.667 22.234 C 191.667 22.088,191.517 21.930,191.333 21.882 C 191.150 21.834,191.000 21.720,191.000 21.629 C 191.000 21.242,190.233 20.672,189.708 20.670 C 189.279 20.667,189.167 20.598,189.167 20.333 C 189.167 20.063,189.056 20.000,188.583 20.000 C 188.196 20.000,188.000 19.922,188.000 19.768 C 188.000 19.640,187.881 19.490,187.736 19.434 C 187.437 19.319,168.570 19.332,168.130 19.447 M202.215 19.667 C 202.143 19.944,201.988 20.000,201.298 20.000 C 200.609 20.000,200.454 20.056,200.382 20.333 C 200.334 20.517,200.161 20.667,199.998 20.667 C 199.836 20.667,199.659 20.779,199.606 20.917 C 199.554 21.054,199.318 21.167,199.083 21.167 C 198.829 21.167,198.612 21.285,198.547 21.458 C 198.488 21.619,198.302 21.848,198.136 21.968 C 197.908 22.132,197.833 22.407,197.833 23.083 C 197.833 23.577,197.758 24.027,197.667 24.083 C 197.559 24.150,197.500 26.943,197.500 31.917 C 197.500 36.890,197.559 39.684,197.667 39.750 C 197.758 39.807,197.833 40.456,197.833 41.192 C 197.833 42.391,197.868 42.540,198.167 42.618 C 198.351 42.667,198.500 42.846,198.500 43.019 C 198.500 43.222,198.618 43.333,198.833 43.333 C 199.017 43.333,199.167 43.442,199.167 43.576 C 199.167 43.721,199.401 43.862,199.750 43.928 C 200.084 43.990,200.333 44.136,200.333 44.269 C 200.333 44.420,200.527 44.500,200.897 44.500 C 201.321 44.500,201.483 44.583,201.548 44.833 C 201.623 45.118,201.776 45.167,202.596 45.167 C 203.278 45.167,203.651 45.252,203.879 45.458 C 204.162 45.715,204.671 45.757,208.101 45.807 L 212.000 45.865 212.000 47.016 L 212.000 48.167 207.292 48.186 C 204.702 48.197,202.358 48.254,202.083 48.313 L 201.583 48.420 201.583 51.335 L 201.583 54.250 208.695 54.293 C 214.855 54.331,215.840 54.303,216.058 54.085 C 216.196 53.947,216.559 53.832,216.863 53.831 C 217.666 53.828,218.167 53.661,218.167 53.397 C 218.167 53.245,218.364 53.167,218.750 53.167 C 219.222 53.167,219.333 53.103,219.333 52.833 C 219.333 52.611,219.444 52.500,219.667 52.500 C 219.850 52.500,220.000 52.396,220.000 52.269 C 220.000 52.143,220.150 52.000,220.333 51.952 C 220.517 51.904,220.667 51.745,220.667 51.599 C 220.667 51.453,220.779 51.333,220.917 51.333 C 221.137 51.333,221.167 49.444,221.167 35.333 L 221.167 19.333 211.734 19.333 C 202.442 19.333,202.301 19.338,202.215 19.667 M227.408 19.546 C 227.163 20.183,227.423 42.365,227.677 42.555 C 227.820 42.662,227.987 42.881,228.047 43.042 C 228.107 43.202,228.271 43.333,228.411 43.333 C 228.552 43.333,228.667 43.442,228.667 43.576 C 228.667 43.721,228.901 43.862,229.250 43.928 C 229.584 43.990,229.833 44.136,229.833 44.269 C 229.833 44.427,230.042 44.500,230.500 44.500 C 231.056 44.500,231.167 44.556,231.167 44.833 C 231.167 45.132,231.278 45.167,232.242 45.167 C 233.092 45.167,233.351 45.228,233.480 45.458 C 233.795 46.022,244.339 45.971,244.906 45.403 C 245.054 45.256,245.492 45.167,246.071 45.167 C 246.889 45.167,247.000 45.127,247.000 44.833 C 247.000 44.556,247.111 44.500,247.667 44.500 C 248.124 44.500,248.333 44.427,248.333 44.269 C 248.333 44.136,248.583 43.990,248.917 43.928 C 249.238 43.867,249.500 43.718,249.500 43.595 C 249.500 43.473,249.650 43.333,249.833 43.285 C 250.017 43.237,250.167 43.078,250.167 42.932 C 250.167 42.786,250.260 42.663,250.375 42.660 C 250.490 42.656,250.753 42.387,250.960 42.063 L 251.336 41.473 251.293 30.445 L 251.250 19.417 246.708 19.372 L 242.167 19.328 242.167 29.497 L 242.167 39.667 239.375 39.667 L 236.583 39.667 236.583 29.661 C 236.583 20.948,236.551 19.634,236.333 19.497 C 235.927 19.240,227.508 19.286,227.408 19.546 M259.114 19.922 C 258.714 20.762,258.717 23.668,259.119 24.349 L 259.405 24.833 264.953 24.833 L 270.500 24.833 270.500 26.321 C 270.500 27.598,270.541 27.820,270.792 27.885 C 270.952 27.927,268.740 27.970,265.875 27.981 C 261.365 27.997,260.667 28.034,260.667 28.250 C 260.667 28.402,260.512 28.500,260.271 28.500 C 259.520 28.500,258.833 28.709,258.833 28.938 C 258.833 29.064,258.683 29.167,258.500 29.167 C 258.278 29.167,258.167 29.278,258.167 29.500 C 258.167 29.770,258.056 29.833,257.583 29.833 C 257.111 29.833,257.000 29.897,257.000 30.167 C 257.000 30.389,256.889 30.500,256.667 30.500 C 256.481 30.500,256.333 30.611,256.333 30.750 C 256.333 30.887,256.183 31.150,256.000 31.333 C 255.410 31.924,255.505 42.000,256.101 42.000 C 256.229 42.000,256.333 42.109,256.333 42.242 C 256.333 42.512,257.092 43.333,257.341 43.333 C 257.428 43.333,257.500 43.438,257.500 43.566 C 257.500 43.834,257.855 44.000,258.430 44.000 C 258.677 44.000,258.833 44.097,258.833 44.250 C 258.833 44.425,259.009 44.500,259.417 44.500 C 259.889 44.500,260.000 44.563,260.000 44.833 C 260.000 45.127,260.111 45.167,260.940 45.167 C 261.643 45.167,261.934 45.240,262.093 45.458 C 262.317 45.765,278.651 45.928,279.375 45.630 C 279.864 45.429,279.823 22.500,279.333 22.500 C 279.092 22.500,279.000 22.389,279.000 22.095 C 279.000 21.609,278.597 21.167,278.155 21.167 C 277.978 21.167,277.833 21.054,277.833 20.917 C 277.833 20.779,277.692 20.667,277.519 20.667 C 277.346 20.667,277.167 20.518,277.118 20.333 C 277.046 20.055,276.891 20.000,276.182 20.000 C 275.444 20.000,275.333 19.956,275.333 19.667 C 275.333 19.338,275.222 19.333,267.364 19.333 L 259.395 19.333 259.114 19.922 M289.628 19.667 C 289.489 19.889,289.239 20.000,288.877 20.000 C 288.444 20.000,288.333 20.068,288.333 20.333 C 288.333 20.603,288.222 20.667,287.750 20.667 C 287.343 20.667,287.167 20.742,287.167 20.917 C 287.167 21.056,287.019 21.167,286.833 21.167 C 286.618 21.167,286.500 21.278,286.500 21.481 C 286.500 21.654,286.351 21.833,286.167 21.882 C 285.920 21.946,285.833 22.109,285.833 22.508 C 285.833 22.829,285.715 23.133,285.542 23.260 C 284.970 23.678,285.023 41.333,285.597 41.333 C 285.762 41.333,285.833 41.535,285.833 42.000 C 285.833 42.556,285.889 42.667,286.167 42.667 C 286.372 42.667,286.502 42.779,286.504 42.958 C 286.506 43.119,286.806 43.471,287.171 43.740 C 287.535 44.010,287.833 44.291,287.833 44.365 C 287.833 44.439,288.200 44.500,288.647 44.500 C 289.321 44.500,289.476 44.557,289.548 44.833 C 289.622 45.117,289.776 45.167,290.568 45.167 C 291.243 45.167,291.500 45.229,291.500 45.393 C 291.500 45.724,292.737 45.830,296.625 45.832 L 300.000 45.833 300.000 47.000 L 300.000 48.167 295.208 48.168 C 288.475 48.169,288.962 47.887,289.036 51.750 L 289.083 54.250 296.250 54.294 C 302.160 54.330,303.446 54.298,303.584 54.110 C 303.678 53.981,304.181 53.846,304.734 53.800 C 305.383 53.746,305.785 53.625,305.918 53.443 C 306.029 53.291,306.250 53.167,306.409 53.167 C 306.568 53.167,306.737 53.017,306.785 52.833 C 306.844 52.610,307.012 52.500,307.298 52.500 C 307.585 52.500,307.958 52.255,308.445 51.747 L 309.167 50.994 309.167 35.164 L 309.167 19.333 299.501 19.333 C 290.017 19.333,289.832 19.340,289.628 19.667 M319.215 19.667 C 319.147 19.928,318.988 20.000,318.481 20.000 C 317.944 20.000,317.833 20.057,317.833 20.333 C 317.833 20.603,317.722 20.667,317.250 20.667 C 316.864 20.667,316.667 20.745,316.667 20.897 C 316.667 21.024,316.517 21.167,316.333 21.215 C 316.150 21.263,316.000 21.422,316.000 21.568 C 316.000 21.714,315.893 21.833,315.762 21.833 C 314.840 21.833,314.833 21.903,314.833 32.319 C 314.833 42.650,314.835 42.667,315.676 42.667 C 315.889 42.667,316.000 42.781,316.000 43.000 C 316.000 43.215,316.111 43.333,316.314 43.333 C 316.488 43.333,316.667 43.482,316.715 43.667 C 316.763 43.850,316.922 44.000,317.068 44.000 C 317.214 44.000,317.333 44.112,317.333 44.250 C 317.333 44.417,317.500 44.500,317.833 44.500 C 318.111 44.500,318.481 44.648,318.667 44.833 C 318.921 45.088,319.222 45.167,319.940 45.167 C 320.643 45.167,320.934 45.240,321.093 45.458 C 321.442 45.935,336.414 45.905,336.763 45.426 C 337.009 45.091,337.112 40.853,336.895 40.042 L 336.794 39.667 330.397 39.667 L 324.000 39.667 324.000 37.500 L 324.000 35.333 331.083 35.333 L 338.167 35.333 338.167 28.583 C 338.167 21.944,338.161 21.833,337.833 21.833 C 337.611 21.833,337.500 21.722,337.500 21.500 C 337.500 21.317,337.396 21.167,337.268 21.167 C 337.140 21.167,336.992 21.054,336.940 20.917 C 336.887 20.779,336.700 20.667,336.525 20.667 C 336.346 20.667,336.167 20.520,336.118 20.333 C 336.048 20.063,335.891 20.000,335.285 20.000 C 334.679 20.000,334.523 19.937,334.452 19.667 C 334.366 19.340,334.224 19.333,326.833 19.333 C 319.442 19.333,319.301 19.340,319.215 19.667 M212.038 32.020 C 212.005 37.228,212.045 39.271,212.184 39.437 C 212.344 39.630,211.951 39.667,209.687 39.667 L 207.000 39.667 207.000 32.250 L 207.000 24.833 209.542 24.833 L 212.083 24.833 212.038 32.020 M300.000 32.250 L 300.000 39.667 297.208 39.662 C 295.230 39.658,294.502 39.607,294.708 39.487 C 294.979 39.329,295.000 38.796,295.000 32.075 L 295.000 24.833 297.500 24.833 L 300.000 24.833 300.000 32.250 M329.500 27.000 L 329.500 29.167 326.750 29.167 L 324.000 29.167 324.000 27.000 L 324.000 24.833 326.750 24.833 L 329.500 24.833 329.500 27.000 M153.500 36.583 L 153.500 39.667 150.750 39.667 L 148.000 39.667 148.000 36.583 L 148.000 33.500 150.750 33.500 L 153.500 33.500 153.500 36.583 M270.534 36.444 C 270.496 38.716,270.534 39.419,270.701 39.525 C 270.819 39.600,269.585 39.663,267.958 39.664 L 265.000 39.667 265.000 36.833 C 265.000 34.426,265.038 34.000,265.250 34.000 C 265.387 34.000,265.500 33.887,265.500 33.750 C 265.500 33.539,265.894 33.500,268.042 33.500 L 270.583 33.500 270.534 36.444 M123.060 54.750 C 122.986 54.943,122.664 55.000,121.649 55.000 C 120.444 55.000,120.333 55.028,120.333 55.333 C 120.333 55.626,120.222 55.667,119.417 55.667 C 118.713 55.667,118.500 55.725,118.500 55.917 C 118.500 56.054,118.380 56.167,118.234 56.167 C 118.088 56.167,117.930 56.317,117.882 56.500 C 117.834 56.683,117.704 56.833,117.594 56.833 C 117.335 56.833,116.667 57.601,116.667 57.898 C 116.667 58.025,116.517 58.167,116.333 58.215 C 115.823 58.348,115.806 81.814,116.315 81.947 C 116.490 81.993,116.671 82.228,116.720 82.473 C 116.773 82.733,117.021 83.041,117.321 83.218 C 117.603 83.383,117.833 83.590,117.833 83.676 C 117.833 83.763,117.975 83.833,118.147 83.833 C 118.321 83.833,118.500 83.982,118.548 84.167 C 118.611 84.408,118.776 84.500,119.143 84.500 C 119.453 84.500,119.714 84.614,119.813 84.792 C 119.965 85.063,120.537 85.083,128.113 85.083 L 136.250 85.083 136.250 82.424 L 136.250 79.765 135.833 79.649 C 135.604 79.585,133.110 79.526,130.292 79.517 L 125.167 79.500 125.167 70.002 L 125.167 60.504 130.708 60.461 L 136.250 60.417 136.296 57.780 C 136.359 54.155,137.114 54.512,129.370 54.506 C 123.997 54.501,123.143 54.534,123.060 54.750 M200.394 54.750 C 200.341 54.887,200.205 55.000,200.091 55.000 C 199.322 55.000,199.333 54.818,199.333 67.761 C 199.333 80.622,199.375 81.330,200.125 81.333 C 200.257 81.333,200.333 81.578,200.333 82.000 C 200.333 82.556,200.389 82.667,200.667 82.667 C 200.889 82.667,201.000 82.778,201.000 83.000 C 201.000 83.185,201.111 83.333,201.250 83.333 C 201.387 83.333,201.500 83.446,201.500 83.583 C 201.500 83.721,201.641 83.833,201.814 83.833 C 201.988 83.833,202.167 83.982,202.215 84.167 C 202.279 84.413,202.442 84.500,202.841 84.500 C 203.162 84.500,203.466 84.618,203.593 84.792 C 203.790 85.060,204.295 85.083,210.028 85.083 L 216.250 85.083 216.296 82.397 L 216.341 79.710 215.817 79.605 C 215.528 79.547,213.876 79.500,212.146 79.500 L 209.000 79.500 209.000 72.170 L 209.000 64.840 212.625 64.795 L 216.250 64.750 216.296 62.114 C 216.357 58.608,216.648 58.846,212.292 58.839 L 209.000 58.833 209.000 57.077 C 209.000 55.742,208.936 55.223,208.731 54.911 L 208.462 54.500 204.476 54.500 C 201.086 54.500,200.475 54.537,200.394 54.750 M148.500 59.083 C 148.341 59.275,147.906 59.333,146.646 59.333 C 145.340 59.333,145.000 59.382,145.000 59.569 C 145.000 59.713,144.743 59.847,144.333 59.917 C 143.923 59.986,143.667 60.120,143.667 60.265 C 143.667 60.417,143.484 60.500,143.151 60.500 C 142.776 60.500,142.612 60.591,142.548 60.833 C 142.500 61.017,142.347 61.167,142.207 61.167 C 141.925 61.167,141.570 61.555,141.332 62.125 C 141.245 62.331,141.061 62.500,140.921 62.500 C 140.466 62.500,140.544 81.756,141.000 82.000 C 141.183 82.098,141.333 82.254,141.333 82.347 C 141.333 82.546,142.151 83.333,142.358 83.333 C 142.436 83.333,142.500 83.446,142.500 83.583 C 142.500 83.758,142.676 83.833,143.083 83.833 C 143.556 83.833,143.667 83.897,143.667 84.167 C 143.667 84.444,143.778 84.500,144.333 84.500 C 144.811 84.500,145.000 84.570,145.000 84.747 C 145.000 85.159,145.450 85.177,154.250 85.129 L 162.750 85.083 162.796 82.456 L 162.842 79.828 162.410 79.664 C 162.155 79.567,159.489 79.500,155.906 79.500 L 149.833 79.500 149.833 77.417 L 149.833 75.333 156.958 75.331 C 160.877 75.329,164.182 75.266,164.303 75.189 C 165.400 74.493,165.365 62.333,164.265 62.333 C 164.157 62.333,163.997 62.090,163.909 61.792 C 163.786 61.374,163.645 61.238,163.292 61.197 C 163.015 61.165,162.833 61.044,162.833 60.890 C 162.833 60.750,162.683 60.596,162.500 60.548 C 162.317 60.500,162.167 60.367,162.167 60.252 C 162.167 60.137,161.875 59.996,161.518 59.939 C 161.162 59.882,160.826 59.722,160.773 59.584 C 160.696 59.383,160.331 59.333,158.917 59.333 C 157.506 59.333,157.137 59.284,157.060 59.083 C 156.979 58.870,156.352 58.833,152.836 58.833 C 149.370 58.833,148.674 58.873,148.500 59.083 M171.060 59.083 C 171.008 59.221,170.785 59.333,170.566 59.333 L 170.167 59.333 170.167 72.149 C 170.167 83.681,170.193 84.974,170.430 85.066 C 170.896 85.244,179.165 85.179,179.511 84.994 C 179.990 84.738,180.020 65.073,179.542 64.948 C 179.381 64.906,180.544 64.863,182.125 64.853 L 185.000 64.833 185.000 74.913 L 185.000 84.994 185.375 85.085 C 185.581 85.136,187.625 85.156,189.917 85.130 L 194.083 85.083 194.126 73.776 C 194.169 62.578,194.166 62.469,193.835 62.382 C 193.596 62.320,193.500 62.155,193.500 61.809 C 193.500 61.508,193.394 61.282,193.221 61.216 C 193.068 61.157,192.805 60.972,192.638 60.804 C 192.470 60.637,192.183 60.500,192.000 60.500 C 191.815 60.500,191.667 60.389,191.667 60.250 C 191.667 60.101,191.514 60.000,191.289 60.000 C 191.082 60.000,190.632 59.850,190.290 59.667 C 189.802 59.405,189.349 59.333,188.188 59.333 C 187.075 59.333,186.656 59.271,186.500 59.083 C 186.321 58.868,185.248 58.833,178.724 58.833 C 172.151 58.833,171.144 58.866,171.060 59.083 M228.227 59.083 C 228.150 59.284,227.775 59.333,226.310 59.333 C 224.902 59.333,224.469 59.386,224.400 59.567 C 224.351 59.695,224.053 59.849,223.738 59.908 C 223.398 59.972,223.167 60.113,223.167 60.258 C 223.167 60.405,223.003 60.500,222.748 60.500 C 222.518 60.500,222.202 60.650,222.045 60.833 C 221.888 61.017,221.668 61.167,221.558 61.167 C 221.447 61.167,221.308 61.317,221.250 61.500 C 221.192 61.683,221.037 61.833,220.905 61.833 C 220.774 61.833,220.667 61.967,220.667 62.130 C 220.667 62.293,220.515 62.556,220.329 62.715 C 219.839 63.134,219.883 81.578,220.375 81.853 C 220.535 81.943,220.670 82.144,220.674 82.300 C 220.679 82.456,220.875 82.733,221.110 82.917 C 221.345 83.100,221.659 83.381,221.806 83.542 C 221.953 83.702,222.289 83.833,222.553 83.833 C 222.891 83.833,223.057 83.931,223.118 84.167 C 223.184 84.417,223.346 84.500,223.769 84.500 C 224.156 84.500,224.333 84.577,224.333 84.747 C 224.333 85.159,224.783 85.177,233.583 85.129 L 242.083 85.083 242.129 82.395 C 242.185 79.126,243.081 79.505,235.292 79.502 L 229.167 79.500 229.167 77.417 L 229.167 75.333 236.320 75.333 C 240.254 75.333,243.591 75.288,243.736 75.232 C 244.199 75.055,244.130 62.333,243.667 62.333 C 243.397 62.333,243.333 62.222,243.333 61.750 C 243.333 61.278,243.270 61.167,243.000 61.167 C 242.817 61.167,242.667 61.058,242.667 60.924 C 242.667 60.779,242.433 60.638,242.083 60.572 C 241.762 60.512,241.500 60.367,241.500 60.250 C 241.500 60.133,241.234 59.987,240.908 59.926 C 240.582 59.865,240.274 59.707,240.223 59.574 C 240.151 59.385,239.747 59.333,238.333 59.333 C 236.889 59.333,236.517 59.284,236.440 59.083 C 236.358 58.871,235.744 58.833,232.333 58.833 C 228.922 58.833,228.309 58.871,228.227 59.083 M257.440 59.083 C 257.253 59.271,256.790 59.333,255.590 59.333 C 254.371 59.333,253.968 59.389,253.900 59.567 C 253.851 59.695,253.553 59.849,253.238 59.908 C 252.898 59.972,252.667 60.113,252.667 60.258 C 252.667 60.423,252.484 60.500,252.095 60.500 C 251.669 60.500,251.495 60.585,251.417 60.833 C 251.358 61.017,251.203 61.167,251.072 61.167 C 250.941 61.167,250.833 61.317,250.833 61.500 C 250.833 61.722,250.722 61.833,250.500 61.833 C 250.170 61.833,250.167 61.944,250.167 73.500 L 250.167 85.167 254.229 85.167 C 256.464 85.167,258.526 85.120,258.813 85.063 L 259.333 84.958 259.333 74.896 L 259.333 64.833 262.750 64.833 L 266.167 64.833 266.167 62.152 C 266.167 58.564,266.560 58.846,261.554 58.839 C 258.337 58.834,257.649 58.875,257.440 59.083 M155.500 66.904 C 155.500 68.737,155.534 68.984,155.792 69.052 C 155.952 69.094,154.677 69.137,152.958 69.147 L 149.833 69.167 149.833 67.000 L 149.833 64.833 152.667 64.833 L 155.500 64.833 155.500 66.904 M234.833 67.000 L 234.833 69.167 232.000 69.167 L 229.167 69.167 229.167 67.000 L 229.167 64.833 232.000 64.833 L 234.833 64.833 234.833 67.000 " stroke="none" fill="#040404" fill-rule="evenodd"></path><path id="path4" d="" stroke="none" fill="#388480" fill-rule="evenodd"></path></g></svg>